{"accessors" : [{"bufferView" : 0, "byteOffset" : 0, "componentType" : 5123, "count" : 42168, "type" : "SCALAR", "max" : [42167], "min" : [0]}, {"bufferView" : 1, "byteOffset" : 0, "componentType" : 5126, "count" : 42168, "type" : "VEC3", "max" : [65.89031982421875, 61.84251403808594, 245], "min" : [-62.516090393066406, -61.84251403808594, 0], "name" : "POSITION"}, {"bufferView" : 1, "byteOffset" : 12, "componentType" : 5126, "count" : 42168, "type" : "VEC3", "max" : [0.9999629855155945, 0.9998190402984619, 0.6385661959648132], "min" : [-0.9990804195404053, -0.9998146891593933, -0.9997678995132446], "name" : "NORMAL"}], "asset" : {"generator" : "Aspose.3D 23.11.1", "version" : "2.0"}, "buffers" : [{"uri" : "data:application/octet-stream;base64,", "byteLength" : 1096376}], "bufferViews" : [{"buffer" : 0, "byteOffset" : 0, "byteLength" : 84336, "target" : 34963}, {"buffer" : 0, "byteOffset" : 84340, "byteLength" : 1012032, "byteStride" : 24, "target" : 34962}], "meshes" : [{"primitives" : [{"attributes" : {"POSITION" : 1, "NORMAL" : 2}, "indices" : 0, "mode" : 4}], "name" : ""}], "nodes" : [{"mesh" : 0, "name" : ""}], "scene" : 0, "scenes" : [{"nodes" : [0]}]}